<svg xmlns="http://www.w3.org/2000/svg" xmlns:xlink="http://www.w3.org/1999/xlink" width="812" zoomAndPan="magnify" viewBox="0 0 609 547.499989" height="730" preserveAspectRatio="xMidYMid meet" version="1.0"><defs><clipPath id="42a5103f71"><path d="M 413 75.578125 L 508 75.578125 L 508 186 L 413 186 Z M 413 75.578125 " clip-rule="nonzero"/></clipPath><clipPath id="e8c6722cda"><path d="M 216 425 L 295 425 L 295 471.96875 L 216 471.96875 Z M 216 425 " clip-rule="nonzero"/></clipPath><clipPath id="c995c1d111"><path d="M 75.210938 420 L 161 420 L 161 471.96875 L 75.210938 471.96875 Z M 75.210938 420 " clip-rule="nonzero"/></clipPath><clipPath id="6815c0a1ab"><path d="M 484 406 L 533 406 L 533 471.96875 L 484 471.96875 Z M 484 406 " clip-rule="nonzero"/></clipPath><clipPath id="7d1b4e45b6"><path d="M 347 419 L 437 419 L 437 471.96875 L 347 471.96875 Z M 347 419 " clip-rule="nonzero"/></clipPath><clipPath id="46cd42e43d"><path d="M 100 361 L 195 361 L 195 471.992188 L 100 471.992188 Z M 100 361 " clip-rule="nonzero"/></clipPath><clipPath id="95cfe3864f"><path d="M 75.351562 301 L 125 301 L 125 401 L 75.351562 401 Z M 75.351562 301 " clip-rule="nonzero"/></clipPath><clipPath id="aae944fb8a"><path d="M 75.351562 167 L 125 167 L 125 267 L 75.351562 267 Z M 75.351562 167 " clip-rule="nonzero"/></clipPath><clipPath id="4423496d0e"><path d="M 313 75.601562 L 392 75.601562 L 392 123 L 313 123 Z M 313 75.601562 " clip-rule="nonzero"/></clipPath><clipPath id="ca1d151987"><path d="M 447 75.601562 L 533.183594 75.601562 L 533.183594 127 L 447 127 Z M 447 75.601562 " clip-rule="nonzero"/></clipPath><clipPath id="06244533db"><path d="M 75.351562 75.601562 L 124 75.601562 L 124 141 L 75.351562 141 Z M 75.351562 75.601562 " clip-rule="nonzero"/></clipPath><clipPath id="1c053f6be5"><path d="M 171 75.601562 L 261 75.601562 L 261 129 L 171 129 Z M 171 75.601562 " clip-rule="nonzero"/></clipPath></defs><path fill="#070749" d="M 331.867188 213.078125 L 277.667969 264.433594 L 331.304688 316.058594 L 369.695312 279.222656 L 369.695312 248.839844 Z M 331.867188 213.078125 " fill-opacity="1" fill-rule="nonzero"/><path fill="#14549c" d="M 331.867188 355.179688 L 277.667969 406.535156 L 331.304688 458.160156 L 369.695312 421.324219 L 369.695312 390.941406 Z M 331.867188 355.179688 " fill-opacity="1" fill-rule="nonzero"/><g clip-path="url(#42a5103f71)"><path fill="#14549c" d="M 469.199219 75.578125 L 413.980469 130.519531 L 468.621094 185.75 L 507.734375 146.34375 L 507.734375 113.835938 Z M 469.199219 75.578125 " fill-opacity="1" fill-rule="nonzero"/></g><path fill="#50a7e6" d="M 532.464844 246.445312 L 532.464844 147.492188 L 484.152344 196.742188 Z M 532.464844 246.445312 " fill-opacity="1" fill-rule="nonzero"/><path fill="#b9ddf8" d="M 532.464844 380.492188 L 532.464844 281.539062 L 484.152344 330.789062 Z M 532.464844 380.492188 " fill-opacity="1" fill-rule="nonzero"/><g clip-path="url(#e8c6722cda)"><path fill="#b9ddf8" d="M 217.664062 471.96875 L 216.699219 471.007812 L 262.910156 425.367188 L 294.921875 457.3125 L 294.921875 471.96875 Z M 217.664062 471.96875 " fill-opacity="1" fill-rule="nonzero"/></g><g clip-path="url(#c995c1d111)"><path fill="#50a7e6" d="M 76.265625 471.96875 L 75.210938 470.910156 L 125.839844 420.765625 L 160.910156 455.867188 L 160.910156 471.96875 Z M 76.265625 471.96875 " fill-opacity="1" fill-rule="nonzero"/></g><path fill="#14549c" d="M 399.601562 278.664062 L 344.386719 333.75 L 399.027344 389.121094 L 438.140625 349.609375 L 438.140625 317.019531 Z M 399.601562 278.664062 " fill-opacity="1" fill-rule="nonzero"/><path fill="#14549c" d="M 468.109375 345.398438 L 416.28125 397.328125 L 467.570312 449.53125 L 504.28125 412.28125 L 504.28125 381.558594 Z M 468.109375 345.398438 " fill-opacity="1" fill-rule="nonzero"/><path fill="#50a7e6" d="M 463.445312 210.203125 L 408.230469 262.992188 L 462.871094 316.058594 L 501.980469 278.191406 L 501.980469 246.960938 Z M 463.445312 210.203125 " fill-opacity="1" fill-rule="nonzero"/><g clip-path="url(#6815c0a1ab)"><path fill="#50a7e6" d="M 484.726562 454.707031 L 532.753906 406.667969 L 532.753906 471.96875 L 501.980469 471.96875 Z M 484.726562 454.707031 " fill-opacity="1" fill-rule="nonzero"/></g><g clip-path="url(#7d1b4e45b6)"><path fill="#070749" d="M 347.550781 471.679688 L 399.890625 419.039062 L 436.699219 455.859375 L 436.699219 471.679688 Z M 347.550781 471.679688 " fill-opacity="1" fill-rule="nonzero"/></g><path fill="#070749" d="M 276.523438 334.492188 L 330.722656 283.136719 L 277.089844 231.511719 L 238.695312 268.347656 L 238.695312 298.730469 Z M 276.523438 334.492188 " fill-opacity="1" fill-rule="nonzero"/><path fill="#14549c" d="M 276.523438 192.390625 L 330.722656 141.035156 L 277.089844 89.410156 L 238.695312 126.246094 L 238.695312 156.628906 Z M 276.523438 192.390625 " fill-opacity="1" fill-rule="nonzero"/><g clip-path="url(#46cd42e43d)"><path fill="#14549c" d="M 139.191406 471.992188 L 194.410156 417.046875 L 139.769531 361.820312 L 100.65625 401.226562 L 100.65625 433.730469 Z M 139.191406 471.992188 " fill-opacity="1" fill-rule="nonzero"/></g><g clip-path="url(#95cfe3864f)"><path fill="#50a7e6" d="M 75.925781 301.125 L 75.925781 400.078125 L 124.238281 350.828125 Z M 75.925781 301.125 " fill-opacity="1" fill-rule="nonzero"/></g><g clip-path="url(#aae944fb8a)"><path fill="#b9ddf8" d="M 75.925781 167.078125 L 75.925781 266.03125 L 124.238281 216.78125 Z M 75.925781 167.078125 " fill-opacity="1" fill-rule="nonzero"/></g><g clip-path="url(#4423496d0e)"><path fill="#b9ddf8" d="M 390.726562 75.601562 L 391.691406 76.5625 L 345.480469 122.203125 L 313.46875 90.253906 L 313.46875 75.601562 Z M 390.726562 75.601562 " fill-opacity="1" fill-rule="nonzero"/></g><g clip-path="url(#ca1d151987)"><path fill="#50a7e6" d="M 532.128906 75.601562 L 533.183594 76.660156 L 482.554688 126.804688 L 447.480469 91.703125 L 447.480469 75.601562 Z M 532.128906 75.601562 " fill-opacity="1" fill-rule="nonzero"/></g><path fill="#14549c" d="M 208.789062 268.90625 L 264.003906 213.820312 L 209.363281 158.449219 L 170.253906 197.957031 L 170.253906 230.546875 Z M 208.789062 268.90625 " fill-opacity="1" fill-rule="nonzero"/><path fill="#14549c" d="M 140.28125 202.171875 L 192.109375 150.242188 L 140.820312 98.039062 L 104.109375 135.289062 L 104.109375 166.011719 Z M 140.28125 202.171875 " fill-opacity="1" fill-rule="nonzero"/><path fill="#50a7e6" d="M 144.945312 337.367188 L 200.160156 284.578125 L 145.519531 231.511719 L 106.410156 269.375 L 106.410156 300.609375 Z M 144.945312 337.367188 " fill-opacity="1" fill-rule="nonzero"/><g clip-path="url(#06244533db)"><path fill="#50a7e6" d="M 123.664062 92.863281 L 75.636719 140.902344 L 75.636719 75.601562 L 106.410156 75.601562 Z M 123.664062 92.863281 " fill-opacity="1" fill-rule="nonzero"/></g><g clip-path="url(#1c053f6be5)"><path fill="#070749" d="M 260.839844 75.890625 L 208.5 128.53125 L 171.691406 91.710938 L 171.691406 75.890625 Z M 260.839844 75.890625 " fill-opacity="1" fill-rule="nonzero"/></g></svg>