<svg xmlns="http://www.w3.org/2000/svg" xmlns:xlink="http://www.w3.org/1999/xlink" width="1920" zoomAndPan="magnify" viewBox="0 0 1440 809.999993" height="1080" preserveAspectRatio="xMidYMid meet" version="1.0"><defs><clipPath id="895cf94ad0"><path d="M 830 206.898438 L 925 206.898438 L 925 318 L 830 318 Z M 830 206.898438 " clip-rule="nonzero"/></clipPath><clipPath id="4581c51366"><path d="M 632 557 L 711 557 L 711 603.648438 L 632 603.648438 Z M 632 557 " clip-rule="nonzero"/></clipPath><clipPath id="9294ce3f38"><path d="M 490.5 552 L 577 552 L 577 603.648438 L 490.5 603.648438 Z M 490.5 552 " clip-rule="nonzero"/></clipPath><clipPath id="bd9bf3f32d"><path d="M 901 538 L 949.5 538 L 949.5 603.648438 L 901 603.648438 Z M 901 538 " clip-rule="nonzero"/></clipPath><clipPath id="c685c18979"><path d="M 763 550 L 853 550 L 853 603.648438 L 763 603.648438 Z M 763 550 " clip-rule="nonzero"/></clipPath><clipPath id="066b0ba808"><path d="M 515 493 L 610 493 L 610 603.671875 L 515 603.671875 Z M 515 493 " clip-rule="nonzero"/></clipPath><clipPath id="6208cbaca4"><path d="M 728 206.921875 L 808 206.921875 L 808 254 L 728 254 Z M 728 206.921875 " clip-rule="nonzero"/></clipPath><clipPath id="2427b90cff"><path d="M 863 206.921875 L 948.890625 206.921875 L 948.890625 259 L 863 259 Z M 863 206.921875 " clip-rule="nonzero"/></clipPath><clipPath id="7659f0b8b7"><path d="M 490.640625 206.921875 L 539 206.921875 L 539 273 L 490.640625 273 Z M 490.640625 206.921875 " clip-rule="nonzero"/></clipPath></defs><rect x="-144" width="1728" fill="#ffffff" y="-80.999999" height="971.999992" fill-opacity="1"/><rect x="-144" width="1728" fill="#ffffff" y="-80.999999" height="971.999992" fill-opacity="1"/><path fill="#070749" d="M 747.8125 344.523438 L 693.476562 395.925781 L 747.246094 447.597656 L 785.734375 410.726562 L 785.734375 380.316406 Z M 747.8125 344.523438 " fill-opacity="1" fill-rule="nonzero"/><path fill="#14549c" d="M 747.8125 486.753906 L 693.476562 538.15625 L 747.246094 589.828125 L 785.734375 552.957031 L 785.734375 522.546875 Z M 747.8125 486.753906 " fill-opacity="1" fill-rule="nonzero"/><g clip-path="url(#895cf94ad0)"><path fill="#14549c" d="M 885.492188 206.898438 L 830.136719 261.890625 L 884.917969 317.171875 L 924.128906 277.726562 L 924.128906 245.191406 Z M 885.492188 206.898438 " fill-opacity="1" fill-rule="nonzero"/></g><path fill="#50a7e6" d="M 948.921875 377.921875 L 948.921875 278.878906 L 900.484375 328.171875 Z M 948.921875 377.921875 " fill-opacity="1" fill-rule="nonzero"/><path fill="#b9ddf8" d="M 948.921875 512.089844 L 948.921875 413.046875 L 900.484375 462.34375 Z M 948.921875 512.089844 " fill-opacity="1" fill-rule="nonzero"/><g clip-path="url(#4581c51366)"><path fill="#b9ddf8" d="M 633.316406 603.648438 L 632.351562 602.6875 L 678.679688 557.003906 L 710.773438 588.980469 L 710.773438 603.648438 Z M 633.316406 603.648438 " fill-opacity="1" fill-rule="nonzero"/></g><g clip-path="url(#9294ce3f38)"><path fill="#50a7e6" d="M 491.558594 603.648438 L 490.5 602.589844 L 541.257812 552.398438 L 576.417969 587.53125 L 576.417969 603.648438 Z M 491.558594 603.648438 " fill-opacity="1" fill-rule="nonzero"/></g><path fill="#14549c" d="M 815.722656 410.167969 L 760.363281 465.304688 L 815.144531 520.726562 L 854.355469 481.179688 L 854.355469 448.5625 Z M 815.722656 410.167969 " fill-opacity="1" fill-rule="nonzero"/><path fill="#14549c" d="M 884.402344 476.964844 L 832.445312 528.941406 L 883.863281 581.191406 L 920.667969 543.910156 L 920.667969 513.15625 Z M 884.402344 476.964844 " fill-opacity="1" fill-rule="nonzero"/><path fill="#50a7e6" d="M 879.726562 341.644531 L 824.371094 394.480469 L 879.152344 447.597656 L 918.363281 409.699219 L 918.363281 378.4375 Z M 879.726562 341.644531 " fill-opacity="1" fill-rule="nonzero"/><g clip-path="url(#bd9bf3f32d)"><path fill="#50a7e6" d="M 901.0625 586.371094 L 949.210938 538.289062 L 949.210938 603.648438 L 918.363281 603.648438 Z M 901.0625 586.371094 " fill-opacity="1" fill-rule="nonzero"/></g><g clip-path="url(#c685c18979)"><path fill="#070749" d="M 763.535156 603.359375 L 816.007812 550.671875 L 852.914062 587.523438 L 852.914062 603.359375 Z M 763.535156 603.359375 " fill-opacity="1" fill-rule="nonzero"/></g><path fill="#070749" d="M 692 466.046875 L 746.246094 414.644531 L 692.5625 362.972656 L 654.136719 399.84375 L 654.136719 430.253906 Z M 692 466.046875 " fill-opacity="1" fill-rule="nonzero"/><path fill="#14549c" d="M 692 323.816406 L 746.246094 272.414062 L 692.5625 220.742188 L 654.136719 257.613281 L 654.136719 288.023438 Z M 692 323.816406 " fill-opacity="1" fill-rule="nonzero"/><g clip-path="url(#066b0ba808)"><path fill="#14549c" d="M 554.542969 603.671875 L 609.808594 548.679688 L 555.117188 493.398438 L 515.972656 532.84375 L 515.972656 565.378906 Z M 554.542969 603.671875 " fill-opacity="1" fill-rule="nonzero"/></g><path fill="#50a7e6" d="M 491.214844 432.648438 L 491.214844 531.691406 L 539.574219 482.398438 Z M 491.214844 432.648438 " fill-opacity="1" fill-rule="nonzero"/><path fill="#b9ddf8" d="M 491.214844 298.480469 L 491.214844 397.523438 L 539.574219 348.226562 Z M 491.214844 298.480469 " fill-opacity="1" fill-rule="nonzero"/><g clip-path="url(#6208cbaca4)"><path fill="#b9ddf8" d="M 806.308594 206.921875 L 807.269531 207.882812 L 761.015625 253.5625 L 728.976562 221.585938 L 728.976562 206.921875 Z M 806.308594 206.921875 " fill-opacity="1" fill-rule="nonzero"/></g><g clip-path="url(#2427b90cff)"><path fill="#50a7e6" d="M 947.835938 206.921875 L 948.890625 207.980469 L 898.214844 258.171875 L 863.113281 223.035156 L 863.113281 206.921875 Z M 947.835938 206.921875 " fill-opacity="1" fill-rule="nonzero"/></g><path fill="#14549c" d="M 624.199219 400.402344 L 679.46875 345.265625 L 624.777344 289.84375 L 585.628906 329.390625 L 585.628906 362.007812 Z M 624.199219 400.402344 " fill-opacity="1" fill-rule="nonzero"/><path fill="#14549c" d="M 555.628906 333.605469 L 607.503906 281.628906 L 556.171875 229.378906 L 519.425781 266.660156 L 519.425781 297.410156 Z M 555.628906 333.605469 " fill-opacity="1" fill-rule="nonzero"/><path fill="#50a7e6" d="M 560.300781 468.925781 L 615.566406 416.085938 L 560.875 362.972656 L 521.726562 400.871094 L 521.726562 432.132812 Z M 560.300781 468.925781 " fill-opacity="1" fill-rule="nonzero"/><g clip-path="url(#7659f0b8b7)"><path fill="#50a7e6" d="M 539 224.195312 L 490.929688 272.277344 L 490.929688 206.921875 L 521.726562 206.921875 Z M 539 224.195312 " fill-opacity="1" fill-rule="nonzero"/></g><path fill="#070749" d="M 676.300781 207.210938 L 623.914062 259.898438 L 587.070312 223.046875 L 587.070312 207.210938 Z M 676.300781 207.210938 " fill-opacity="1" fill-rule="nonzero"/></svg>